<svg xmlns="http://www.w3.org/2000/svg" width="26.813" height="26.813" viewBox="0 0 26.813 26.813">
  <path id="Icon_awesome-facebook-square" data-name="Icon awesome-facebook-square" d="M23.94,2.25H2.873A2.873,2.873,0,0,0,0,5.123V26.19a2.873,2.873,0,0,0,2.873,2.873h8.214V19.947H7.317V15.656h3.771v-3.27c0-3.72,2.214-5.774,5.606-5.774a22.842,22.842,0,0,1,3.323.29v3.651H18.145a2.145,2.145,0,0,0-2.419,2.318v2.786h4.116l-.658,4.291H15.725v9.116H23.94a2.873,2.873,0,0,0,2.873-2.873V5.123A2.873,2.873,0,0,0,23.94,2.25Z" transform="translate(0 -2.25)" fill="#e4e9f2"/>
</svg>
