<svg xmlns="http://www.w3.org/2000/svg" width="26.813" height="26.813" viewBox="0 0 26.813 26.813">
  <path id="Icon_awesome-twitter-square" data-name="Icon awesome-twitter-square" d="M23.94,2.25H2.873A2.874,2.874,0,0,0,0,5.123V26.19a2.874,2.874,0,0,0,2.873,2.873H23.94a2.874,2.874,0,0,0,2.873-2.873V5.123A2.874,2.874,0,0,0,23.94,2.25Zm-2.927,9.5c.012.168.012.341.012.509A11.092,11.092,0,0,1,9.857,23.431a11.116,11.116,0,0,1-6.027-1.76,8.269,8.269,0,0,0,.946.048,7.87,7.87,0,0,0,4.872-1.676A3.93,3.93,0,0,1,5.979,17.32a4.23,4.23,0,0,0,1.772-.072,3.926,3.926,0,0,1-3.142-3.854v-.048a3.923,3.923,0,0,0,1.772.5,3.917,3.917,0,0,1-1.748-3.268,3.876,3.876,0,0,1,.533-1.981A11.145,11.145,0,0,0,13.257,12.7a3.934,3.934,0,0,1,6.7-3.585,7.692,7.692,0,0,0,2.49-.946A3.915,3.915,0,0,1,20.72,10.33a7.811,7.811,0,0,0,2.262-.61A8.262,8.262,0,0,1,21.013,11.754Z" transform="translate(0 -2.25)" fill="#e4e9f2"/>
</svg>
